Coordinates
version=1
nRows=22
nColumns=32
inDegrees=yes

Units are S.I. units (second, meters, Newtons, ...)
If the header above contains a line with 'inDegrees', this indicates whether rotational values are in degrees (yes) or radians (no).

endheader
time	pelvis_tilt	pelvis_list	pelvis_rotation	pelvis_tx	pelvis_ty	pelvis_tz	hip_flexion_r	hip_adduction_r	hip_rotation_r	knee_angle_r	knee_adduction_r	med_cond_adduction_r	lat_cond_adduction_r	patella_r_constrained_knee_angle	ankle_angle_r	subtalar_angle_r	mtp_angle_r	hip_flexion_l	hip_adduction_l	hip_rotation_l	knee_angle_l	knee_adduction_l	med_cond_adduction_l	lat_cond_adduction_l	patella_l_constrained_knee_angle	ankle_angle_l	subtalar_angle_l	mtp_angle_l	lumbar_extension	lumbar_bending	lumbar_rotation
      1.23500000	     -1.45196105	      9.83235642	      5.23008049	      0.95667466	      0.89744522	      0.20890679	     31.69707414	    -17.24415815	    -14.44470016	     -8.71728777	      4.76531839	      0.00000000	      0.00000000	     -0.15214537	      1.16878040	      7.44595729	      0.00000000	    -19.00178532	      8.53979933	    -11.11948590	     -6.62052917	     -0.46950532	     -0.00000000	     -0.00000000	     -0.11555003	      7.55880907	     11.75903547	      0.00000000	     -1.24256014	     -5.56719904	      2.15027078
      1.24000000	     -1.07509719	      9.36687503	      5.52980073	      0.96422350	      0.89774959	      0.20860902	     30.96831095	    -16.86162052	    -14.67243462	     -8.86258456	      4.68379191	      0.00000000	      0.00000000	     -0.15468128	      0.85892760	      7.09134178	      0.00000000	    -19.51610215	      7.78926670	    -11.16754502	     -7.25053107	     -0.59552605	      0.00000000	      0.00000000	     -0.12654564	      7.32624608	     12.18631246	     -0.00000000	     -1.65539400	     -4.99108343	      1.37164431
      1.24500000	     -0.93330728	      9.24216944	      5.74959704	      0.97171816	      0.89757906	      0.20850915	     30.72277266	    -16.82865740	    -14.50002841	     -9.37734921	      4.68050164	      0.00000000	      0.00000000	     -0.16366562	      0.63748321	      6.65757329	      0.00000000	    -19.86652764	      7.55760657	    -10.91372130	     -7.70896184	     -0.87259293	      0.00000000	      0.00000000	     -0.13454677	      6.83640964	     12.17972390	     -0.00000000	     -1.81614523	     -4.68107244	      1.06620922
      1.25000000	     -0.69152317	      8.99555701	      5.95450149	      0.97928686	      0.89766299	      0.20844833	     30.31404885	    -16.64486203	    -14.42891752	     -9.87405554	      4.63947932	     -0.00000000	     -0.00000000	     -0.17233478	      0.33296520	      6.21827913	     -0.00000000	    -20.21768219	      7.13301423	    -10.87370371	     -8.35833047	     -1.09625489	     -0.00000000	     -0.00000000	     -0.14588039	      6.42348462	     12.34395343	     -0.00000000	     -2.06368639	     -4.36005114	      0.47781193
      1.25500000	     -0.41903853	      8.71332874	      6.26363298	      0.98693230	      0.89795078	      0.20806242	     29.77014895	    -16.51427724	    -14.48167591	    -10.32687774	      4.68058888	     -0.00000000	     -0.00000000	     -0.18023802	     -0.10093500	      5.63992387	     -0.00000000	    -20.64112020	      6.69738355	    -10.58476522	     -8.89392725	     -1.38662699	      0.00000000	      0.00000000	     -0.15522831	      5.82773192	     12.31342219	     -0.00000000	     -2.34015520	     -3.89552209	     -0.13122848
      1.26000000	     -0.08679016	      8.25780236	      6.40195382	      0.99470899	      0.89831328	      0.20813842	     29.19186010	    -16.02585299	    -14.53152061	    -10.76183738	      4.56264170	      0.00000000	      0.00000000	     -0.18782950	     -0.61154912	      5.13751881	      0.00000000	    -20.98775943	      6.00383712	    -10.82757396	     -9.67913910	     -1.55723028	      0.00000000	      0.00000000	     -0.16893285	      5.34261353	     12.65915520	     -0.00000000	     -2.63289489	     -3.31551685	     -0.71899282
      1.26500000	      0.17695188	      7.97504393	      6.63329248	      1.00240682	      0.89872046	      0.20794565	     28.67956246	    -15.83539701	    -14.51954543	    -11.25789594	      4.58440873	     -0.00000000	     -0.00000000	     -0.19648735	     -1.19923876	      4.51687842	      0.00000000	    -21.31498538	      5.59750724	    -10.64280794	    -10.32886846	     -1.88090402	      0.00000000	      0.00000000	     -0.18027276	      4.60641778	     12.56385967	      0.00000000	     -2.87367026	     -2.88274583	     -1.29997912
      1.27000000	      0.49427537	      7.55775164	      6.79466217	      1.01023436	      0.89925887	      0.20791743	     28.10382329	    -15.44621363	    -14.61378668	    -11.74549824	      4.55733596	      0.00000000	      0.00000000	     -0.20499762	     -1.84355186	      3.98440324	     -0.00000000	    -21.61207718	      5.00056833	    -10.72845445	    -11.12494588	     -2.13473173	     -0.00000000	     -0.00000000	     -0.19416693	      3.89511549	     12.61802468	      0.00000000	     -3.14352212	     -2.33551350	     -1.92737231
      1.27500000	      0.85718116	      7.04118603	      7.00669720	      1.01810477	      0.89998274	      0.20772047	     27.42814243	    -14.99102885	    -14.88411211	    -12.19542486	      4.53433078	      0.00000000	      0.00000000	     -0.21285032	     -2.54371117	      3.50821548	     -0.00000000	    -21.87605016	      4.27083132	    -10.89830648	    -12.03603713	     -2.40355008	      0.00000000	      0.00000000	     -0.21006848	      3.14826337	     12.78130638	     -0.00000000	     -3.43510777	     -1.70742802	     -2.73967203
      1.28000000	      1.11043258	      6.75279033	      7.16333431	      1.02590639	      0.90063582	      0.20763955	     26.94054756	    -14.78424102	    -14.88241492	    -12.73888402	      4.60209606	     -0.00000000	     -0.00000000	     -0.22233547	     -3.17486334	      2.93342672	      0.00000000	    -22.06983893	      3.93269305	    -10.76769882	    -12.82901806	     -2.81999611	     -0.00000000	     -0.00000000	     -0.22390861	      2.10849285	     12.45034945	     -0.00000000	     -3.63275252	     -1.21560113	     -3.21563056
      1.28500000	      1.33416039	      6.44959155	      7.17156111	      1.03380197	      0.90120918	      0.20801580	     26.62529436	    -14.50013392	    -14.94350585	    -13.48323724	      4.59287471	      0.00000000	      0.00000000	     -0.23532688	     -3.79969595	      2.74779157	      0.00000000	    -22.15651532	      3.51211453	    -10.96228490	    -13.78051872	     -3.07620327	      0.00000000	      0.00000000	     -0.24051542	      1.11073655	     12.34970630	      0.00000000	     -3.77817266	     -0.82921835	     -3.61284074
      1.29000000	      1.62565267	      6.00574148	      7.33602125	      1.04173755	      0.90212958	      0.20787787	     26.04220691	    -14.16248180	    -15.15472561	    -13.98500332	      4.68275733	      0.00000000	      0.00000000	     -0.24408435	     -4.47249616	      2.37213707	      0.00000000	    -22.22886703	      2.93686684	    -11.08457602	    -14.81971533	     -3.42068648	     -0.00000000	      0.00000000	     -0.25865283	      0.00302599	     12.21830816	      0.00000000	     -3.98011453	     -0.30263431	     -4.40148213
      1.29500000	      1.93235630	      5.58276402	      7.39755528	      1.04969642	      0.90304138	      0.20798519	     25.54000795	    -13.80275481	    -15.36584305	    -14.60826478	      4.72277337	      0.00000000	      0.00000000	     -0.25496232	     -5.03834038	      2.11629779	     -0.00000000	    -22.26696800	      2.39685424	    -11.36465467	    -15.94161291	     -3.76834633	      0.00000000	      0.00000000	     -0.27823363	     -1.18682593	     12.02625999	     -0.00000000	     -4.17206429	      0.30355728	     -4.85842866
      1.30000000	      2.11774301	      5.31444657	      7.33114368	      1.05764655	      0.90379208	      0.20841350	     25.29013580	    -13.59115942	    -15.38549899	    -15.42235461	      4.80153250	      0.00000000	      0.00000000	     -0.26917087	     -5.45364825	      2.05025290	     -0.00000000	    -22.14012079	      2.09225751	    -11.69461804	    -17.12261605	     -4.15010222	      0.00000000	      0.00000000	     -0.29884603	     -2.48866410	     11.76594589	      0.00000000	     -4.24897059	      0.64674282	     -5.22976695
      1.30500000	      2.36438661	      4.95157153	      7.34968388	      1.06552474	      0.90483273	      0.20857771	     24.78420242	    -13.28258414	    -15.31310255	    -15.88310393	      4.97975479	      0.00000000	      0.00000000	     -0.27721246	     -6.05633593	      1.45506592	     -0.00000000	    -21.98633319	      1.66732718	    -11.96521838	    -18.42030571	     -4.55371167	     -0.00000000	     -0.00000000	     -0.32149498	     -3.84106947	     11.40655906	     -0.00000000	     -4.40246240	      1.07414209	     -5.81100764
      1.31000000	      2.59767824	      4.52056087	      7.26077712	      1.07359438	      0.90578041	      0.20902329	     24.41370995	    -12.87013832	    -15.41554075	    -16.57356237	      5.04189856	      0.00000000	      0.00000000	     -0.28926323	     -6.37147826	      1.44200387	     -0.00000000	    -21.75312526	      1.13180938	    -12.54212725	    -19.82884289	     -4.89764737	     -0.00000000	      0.00000000	     -0.34607860	     -5.27410637	     11.13589709	     -0.00000000	     -4.48206749	      1.65492630	     -6.14655603
      1.31500000	      2.76700046	      4.22384897	      7.16956101	      1.08153373	      0.90671176	      0.20946538	     24.09511318	    -12.61802752	    -15.28559862	    -17.22586683	      5.22835051	      0.00000000	      0.00000000	     -0.30064809	     -6.65758405	      1.12554881	     -0.00000000	    -21.39666896	      0.77742147	    -13.01160953	    -21.30885021	     -5.29827464	     -0.00000000	     -0.00000000	     -0.37190960	     -6.80718309	     10.69267174	      0.00000000	     -4.52809140	      1.99538534	     -6.55947450
      1.32000000	      2.94924094	      3.82564155	      7.02722927	      1.08952711	      0.90768624	      0.21005955	     23.73461386	    -12.19089303	    -15.13171052	    -17.78328120	      5.36962344	     -0.00000000	     -0.00000000	     -0.31037681	     -6.90430751	      0.80305092	      0.00000000	    -20.96620621	      0.27055756	    -13.65944689	    -22.92582385	     -5.66434971	     -0.00000000	     -0.00000000	     -0.40013111	     -8.35821066	     10.29157272	      0.00000000	     -4.56703674	      2.46812804	     -6.89392157
      1.32500000	      3.11587757	      3.40278877	      6.82239021	      1.09746872	      0.90865180	      0.21085395	     23.35975162	    -11.66088908	    -14.79561941	    -18.21758966	      5.52618463	     -0.00000000	     -0.00000000	     -0.31795692	     -7.15557490	      0.25196370	      0.00000000	    -20.43355192	     -0.30142909	    -14.46270708	    -24.68287225	     -6.00296724	     -0.00000000	     -0.00000000	     -0.43079739	     -9.94605958	      9.83699388	      0.00000000	     -4.58937890	      2.99852641	     -7.07214234
      1.33000000	      3.22058227	      3.09863614	      6.73053223	      1.10527551	      0.90959887	      0.21132080	     23.00470290	    -11.35761433	    -14.44846232	    -18.64501986	      5.80565046	      0.00000000	      0.00000000	     -0.32541699	     -7.33864995	     -0.46049812	     -0.00000000	    -19.76520607	     -0.71800001	    -15.06814224	    -26.50058190	     -6.45076761	      0.00000000	     -0.00000000	     -0.46252241	    -11.59741464	      9.26747449	      0.00000000	     -4.58370570	      3.15833666	     -7.74934247
      1.33500000	      3.40782279	      2.44810031	      6.49403371	      1.11332523	      0.91055588	      0.21231980	     22.56102809	    -10.47949873	    -14.23221087	    -18.97118068	      5.82660124	      0.00000000	      0.00000000	     -0.33110957	     -7.39965582	     -0.89770833	      0.00000000	    -19.11742368	     -1.68016168	    -16.12022770	    -28.50388668	     -6.70106486	      0.00000000	      0.00000000	     -0.49748667	    -13.10688074	      8.84946143	      0.00000000	     -4.58739372	      3.91252741	     -7.92929362
      1.34000000	      3.55441608	      1.90674214	      6.30362177	      1.12122197	      0.91148865	      0.21322695	     22.13620727	     -9.75214450	    -13.96377757	    -19.27934566	      5.91843394	     -0.00000000	     -0.00000000	     -0.33648806	     -7.40624462	     -1.45674261	     -0.00000000	    -18.37693674	     -2.51378516	    -17.03718264	    -30.53779361	     -7.02569486	     -0.00000000	     -0.00000000	     -0.53298504	    -14.71808219	      8.26246517	      0.00000000	     -4.57016467	      4.54600466	     -8.10672598
